<svg xmlns="http://www.w3.org/2000/svg" id="SvgjsSvg341593" width="4096" height="2124.4247771849077" version="1.1" xmlns:xlink="http://www.w3.org/1999/xlink" xmlns:svgjs="http://svgjs.com/svgjs"><defs id="SvgjsDefs341594"></defs><g id="SvgjsG341595" transform="translate(328, 328.0000000000001) scale(34.4)" opacity="1"><defs id="SvgjsDefs105412"></defs><g id="SvgjsG105413" transform="scale(0.20657910502778368)" opacity="1"><g id="SvgjsG105414" class="text" transform="translate(232.10000000000008, 121.86) scale(1 1)" light-content="false" fill="#000000"><path d="M-222.16 -34.34L-223.32 -35.24C-226.76 -31.54 -229.09 -27.86 -230.29 -24.2C-231.5 -20.55 -232.1 -17.66 -232.1 -15.55C-232.1 -13.45 -231.97 -11.7 -231.71 -10.33C-230.08 -1.2 -225.21 5.25 -217.12 9.04C-212.82 11.1 -207.92 12.13 -202.41 12.13C-193.37 12.13 -186.14 9.68 -180.72 4.78C-174.44 -0.9 -171.3 -7.7 -171.3 -15.62C-171.3 -26.2 -176.03 -35.24 -185.5 -42.73L-209.38 -61.57C-213.17 -64.59 -215.06 -68.35 -215.06 -72.87C-215.06 -77.39 -213.6 -81.09 -210.67 -83.97C-207.74 -86.85 -204.11 -88.3 -199.76 -88.3C-195.42 -88.3 -191.8 -87.11 -188.92 -84.75C-186.04 -82.38 -184.55 -79.13 -184.46 -75L-183.17 -75L-183.43 -90.88L-188.6 -90.88C-192.64 -91.74 -196.38 -92.17 -199.83 -92.17C-206.71 -92.17 -212.18 -89.99 -216.22 -85.65C-220.27 -81.3 -222.29 -75.99 -222.29 -69.71C-222.29 -63.42 -219.75 -58.3 -214.67 -54.35L-191.44 -36.02C-187.48 -32.92 -184.62 -29.52 -182.85 -25.82C-181.09 -22.12 -180.21 -18.67 -180.21 -15.49C-180.21 -14.89 -180.25 -14.29 -180.33 -13.68C-181.19 -5.16 -185.11 0.9 -192.08 4.52C-195.78 6.5 -200.15 7.49 -205.18 7.49C-210.22 7.49 -214.71 6.15 -218.67 3.49C-225.47 -0.99 -228.87 -7.27 -228.87 -15.36C-228.87 -22.16 -226.63 -28.49 -222.16 -34.34Z M-2.58 -121.86C-15.83 -121.86 -26.76 -116.22 -35.37 -104.95C-40.02 -98.92 -43.46 -92.17 -45.7 -84.68L-64.8 -20.78L-90.36 -92.3L-91.52 -92.43L-115.53 -18.33L-135.15 -81.2C-135.41 -82.06 -135.54 -83 -135.54 -84.04C-135.54 -85.07 -135.09 -86.17 -134.19 -87.33C-133.28 -88.49 -131.93 -89.07 -130.12 -89.07L-128.96 -89.07L-128.96 -90.36L-157.61 -90.36L-157.61 -89.07L-156.58 -89.07C-154.34 -89.07 -152.15 -88.4 -150 -87.07C-147.85 -85.74 -146.26 -83.78 -145.22 -81.2L-119.15 -7.49C-122.16 0.69 -126.46 7.49 -132.06 12.91C-134.81 15.58 -137.58 17.43 -140.38 18.46C-143.18 19.49 -145.42 20.01 -147.09 20.01C-148.77 20.01 -150.26 19.88 -151.55 19.62L-151.81 20.91C-149.4 21.43 -147.12 21.69 -144.96 21.69C-138.77 21.69 -133.17 19.66 -128.18 15.62C-121.3 10.2 -116.31 2.62 -113.21 -7.1L-92.43 -72.16L-66.09 1.55L-64.93 1.55C-64.76 -2.58 -63.81 -7.36 -62.09 -12.78L-37.31 -84.68C-34.9 -91.57 -31.97 -97.68 -28.53 -103.01C-26.38 -106.37 -24.05 -109.23 -21.56 -111.6C-19.06 -113.96 -16.01 -116.01 -12.39 -117.73C-8.78 -119.45 -4.95 -120.39 -0.9 -120.57L-0.9 -121.86Z M28.92 -1.29C26.68 -1.29 24.76 -2.09 23.17 -3.68C21.58 -5.27 20.74 -7.19 20.65 -9.42L20.65 -80.03C20.65 -83.39 21.43 -86.01 22.98 -87.91C24.53 -89.8 27.15 -91.05 30.85 -91.65L30.59 -92.94C25.69 -92 19 -91.24 10.52 -90.68C2.04 -90.12 -2.24 -89.84 -2.32 -89.84C-13.43 -88.64 -18.98 -84.38 -18.98 -77.06C-18.98 -75 -18.42 -73.11 -17.3 -71.38C-15.4 -68.37 -12.56 -66.87 -8.78 -66.87C-7.57 -66.87 -6.37 -67 -5.16 -67.25L-5.16 -68.03C-8.43 -68.2 -10.82 -69.1 -12.33 -70.74C-13.83 -72.37 -14.59 -74.35 -14.59 -76.68C-14.59 -82.44 -10.24 -85.58 -1.55 -86.1L12.26 -86.88L12.26 -9.42C12.26 -7.19 11.45 -5.27 9.81 -3.68C8.18 -2.09 6.24 -1.29 4 -1.29L2.32 -1.29L2.32 0L30.59 0L30.59 -1.29Z M64.16 -34.34L62.99 -35.24C59.55 -31.54 57.23 -27.86 56.02 -24.2C54.82 -20.55 54.22 -17.66 54.22 -15.55C54.22 -13.45 54.35 -11.7 54.6 -10.33C56.24 -1.2 61.1 5.25 69.19 9.04C73.49 11.1 78.4 12.13 83.91 12.13C92.94 12.13 100.17 9.68 105.59 4.78C111.88 -0.9 115.02 -7.7 115.02 -15.62C115.02 -26.2 110.28 -35.24 100.82 -42.73L76.94 -61.57C73.15 -64.59 71.26 -68.35 71.26 -72.87C71.26 -77.39 72.72 -81.09 75.64 -83.97C78.57 -86.85 82.21 -88.3 86.55 -88.3C90.9 -88.3 94.51 -87.11 97.4 -84.75C100.28 -82.38 101.76 -79.13 101.85 -75L103.14 -75L102.88 -90.88L97.72 -90.88C93.67 -91.74 89.93 -92.17 86.49 -92.17C79.6 -92.17 74.14 -89.99 70.09 -85.65C66.05 -81.3 64.03 -75.99 64.03 -69.71C64.03 -63.42 66.57 -58.3 71.64 -54.35L94.88 -36.02C98.84 -32.92 101.7 -29.52 103.46 -25.82C105.23 -22.12 106.11 -18.67 106.11 -15.49C106.11 -14.89 106.07 -14.29 105.98 -13.68C105.12 -5.16 101.2 0.9 94.23 4.52C90.53 6.5 86.17 7.49 81.13 7.49C76.1 7.49 71.6 6.15 67.64 3.49C60.84 -0.99 57.44 -7.27 57.44 -15.36C57.44 -22.16 59.68 -28.49 64.16 -34.34Z M226.68 -1.29C224.35 -1.29 222.39 -2.09 220.8 -3.68C219.21 -5.27 218.41 -7.19 218.41 -9.42L218.41 -78.74C218.41 -86.32 219.36 -92.25 221.25 -96.56C223.15 -100.86 226.03 -104.04 229.9 -106.11L229.26 -107.27C224.27 -106.15 220.31 -104.3 217.38 -101.72C212.56 -97.42 210.11 -89.76 210.02 -78.74L210.02 -46.6L160.07 -46.6L160.07 -81.07C160.15 -83.3 160.99 -85.2 162.58 -86.75C164.18 -88.3 166.09 -89.07 168.33 -89.07L170.01 -89.07L170.01 -90.36L141.87 -90.36L141.87 -89.07L143.42 -89.07C145.65 -89.07 147.59 -88.3 149.22 -86.75C150.86 -85.2 151.68 -83.3 151.68 -81.07L151.68 -9.04C151.68 -1.46 150.75 4.48 148.9 8.78C147.05 13.08 144.19 16.26 140.32 18.33L140.96 19.49C145.18 18.55 148.62 17.13 151.29 15.23C157.14 11.1 160.07 3.01 160.07 -9.04L160.07 -42.73L210.02 -42.73L210.02 -9.17C209.85 -6.93 208.97 -5.06 207.38 -3.55C205.79 -2.04 203.91 -1.29 201.76 -1.29L200.08 -1.29L200.08 0L228.23 0L228.23 -1.29Z"></path></g><g id="SvgjsG105415" class="text" transform="translate(231.26000000000005, 198.59339718819464) scale(1)" light-content="false" fill="#000000"><path d="M-227.64 -21.71L-227.64 0L-224.03 0L-224.03 -12.87L-211.96 -12.87L-211.96 -4.83C-211.96 -3.46 -211.86 -2.44 -211.64 -1.77C-211.43 -1.1 -211.07 -0.64 -210.58 -0.38C-210.08 -0.13 -209.34 0 -208.34 0L-204.72 0L-204.72 -0.8L-205.53 -0.8C-206.65 -0.8 -207.41 -1.13 -207.78 -1.79C-208.16 -2.45 -208.34 -3.46 -208.34 -4.83L-208.34 -26.54L-211.96 -26.54L-211.96 -14.48L-224.03 -14.48L-224.03 -21.71C-224.03 -23.08 -224.13 -24.1 -224.35 -24.77C-224.56 -25.44 -224.92 -25.9 -225.41 -26.16C-225.91 -26.41 -226.65 -26.54 -227.64 -26.54L-231.26 -26.54L-231.26 -25.73L-230.46 -25.73C-229.33 -25.73 -228.58 -25.41 -228.21 -24.75C-227.83 -24.09 -227.64 -23.08 -227.64 -21.71Z M-179.15 -0.14C-178.27 0.22 -177.4 0.4 -176.54 0.4C-175.14 0.4 -173.98 0.19 -173.04 -0.24C-172.1 -0.67 -171.39 -1.19 -170.91 -1.81L-170.71 -1.81L-169.3 0L-167.29 0L-167.29 -10.86C-167.29 -14.15 -167.92 -16.39 -169.18 -17.55C-170.44 -18.72 -172.16 -19.3 -174.33 -19.3C-175.64 -19.3 -176.85 -19.19 -177.97 -18.96C-179.08 -18.73 -179.88 -18.38 -180.36 -17.89C-180.81 -17.44 -181.1 -16.95 -181.2 -16.43C-181.31 -15.9 -181.36 -15.19 -181.36 -14.27L-179.55 -14.27C-179.26 -15.53 -178.75 -16.42 -178.03 -16.93C-177.3 -17.44 -176.34 -17.69 -175.13 -17.69C-173.76 -17.69 -172.72 -17.21 -171.99 -16.24C-171.27 -15.28 -170.91 -13.48 -170.91 -10.86L-172.12 -10.86C-175.17 -10.86 -177.64 -10.43 -179.53 -9.57C-181.42 -8.71 -182.37 -7.26 -182.37 -5.23C-182.37 -3.86 -182.05 -2.76 -181.42 -1.93C-180.79 -1.1 -180.04 -0.5 -179.15 -0.14ZM-172.52 -2.05C-173.11 -1.62 -173.84 -1.41 -174.73 -1.41C-175.8 -1.41 -176.71 -1.74 -177.44 -2.39C-178.18 -3.05 -178.55 -3.99 -178.55 -5.23C-178.55 -6.43 -177.97 -7.41 -176.82 -8.14C-175.67 -8.88 -174.1 -9.25 -172.12 -9.25L-170.91 -9.25L-170.91 -3.82C-171.39 -3.07 -171.93 -2.48 -172.52 -2.05Z M-141.05 -22.07C-140.61 -21.57 -140.08 -21.31 -139.47 -21.31C-138.9 -21.31 -138.45 -21.47 -138.12 -21.79C-137.78 -22.12 -137.62 -22.56 -137.62 -23.12C-137.62 -23.82 -137.84 -24.42 -138.28 -24.93C-138.72 -25.44 -139.25 -25.69 -139.87 -25.69C-140.43 -25.69 -140.88 -25.53 -141.21 -25.21C-141.55 -24.89 -141.72 -24.45 -141.72 -23.88C-141.72 -23.19 -141.5 -22.58 -141.05 -22.07ZM-140.99 -14.07L-140.99 0L-137.37 0L-137.37 -14.07C-137.37 -15.44 -137.48 -16.46 -137.7 -17.13C-137.91 -17.8 -138.27 -18.26 -138.76 -18.52C-139.26 -18.77 -140 -18.9 -140.99 -18.9L-144.61 -18.9L-144.61 -18.09L-143.81 -18.09C-142.68 -18.09 -141.93 -17.77 -141.56 -17.11C-141.18 -16.45 -140.99 -15.44 -140.99 -14.07Z M-111.28 -14.07L-111.28 0L-107.66 0L-107.66 -13.67L-107.66 -14.88C-107.26 -15.49 -106.72 -15.98 -106.05 -16.35C-105.38 -16.71 -104.64 -16.89 -103.84 -16.89C-103.12 -16.89 -102.47 -16.79 -101.91 -16.59C-101.35 -16.39 -100.92 -16.08 -100.62 -15.68L-99.01 -16.89C-99.5 -17.75 -99.97 -18.35 -100.42 -18.7C-100.96 -19.1 -101.76 -19.3 -102.83 -19.3C-103.88 -19.3 -104.83 -19.08 -105.69 -18.64C-106.55 -18.19 -107.27 -17.68 -107.86 -17.09C-108.08 -17.73 -108.44 -18.19 -108.97 -18.48C-109.49 -18.76 -110.26 -18.9 -111.28 -18.9L-114.5 -18.9L-114.5 -18.09L-114.09 -18.09C-112.97 -18.09 -112.22 -17.77 -111.84 -17.11C-111.47 -16.45 -111.28 -15.44 -111.28 -14.07Z M-45.26 -27.34L-45.26 7.64L-41.64 7.64L-41.64 -27.34Z M15.9 -21.71L15.9 0L23.94 0C27.05 0 29.67 -0.53 31.81 -1.59C33.94 -2.65 35 -4.53 35 -7.24C35 -9.01 34.51 -10.42 33.53 -11.48C32.56 -12.54 30.83 -13.27 28.37 -13.67C30.14 -14.26 31.45 -15.07 32.31 -16.08C33.17 -17.1 33.59 -18.24 33.59 -19.5C33.59 -22.26 32.52 -24.13 30.36 -25.09C28.2 -26.06 25.66 -26.54 22.74 -26.54L12.28 -26.54L12.28 -25.73L13.09 -25.73C14.21 -25.73 14.96 -25.41 15.34 -24.75C15.72 -24.09 15.9 -23.08 15.9 -21.71ZM23.34 -14.27L19.52 -14.27L19.52 -24.73C20.59 -25 21.6 -25.13 22.54 -25.13C23.69 -25.13 24.82 -24.94 25.93 -24.55C27.05 -24.16 27.97 -23.56 28.69 -22.74C29.41 -21.92 29.77 -20.91 29.77 -19.7C29.77 -18.55 29.47 -17.56 28.85 -16.75C28.23 -15.93 27.44 -15.31 26.46 -14.9C25.48 -14.48 24.44 -14.27 23.34 -14.27ZM28.99 -2.85C27.66 -1.89 25.78 -1.41 23.34 -1.41C22.08 -1.41 20.81 -1.59 19.52 -1.97L19.52 -12.67L23.34 -12.67C25.83 -12.67 27.73 -12.18 29.03 -11.22C30.33 -10.25 30.98 -8.86 30.98 -7.04C30.98 -5.21 30.32 -3.82 28.99 -2.85Z M62.38 -0.9C63.64 -0.03 65.19 0.4 67.01 0.4C68.59 0.4 69.97 0.07 71.15 -0.6C72.33 -1.27 73.36 -2.35 74.25 -3.82L73.44 -4.42C72.69 -3.35 71.88 -2.55 71.01 -2.01C70.14 -1.47 69.07 -1.21 67.81 -1.21C66.12 -1.21 64.8 -1.92 63.83 -3.34C62.87 -4.76 62.38 -6.59 62.38 -8.85L74.57 -8.85L74.65 -10.45C74.65 -13.32 73.98 -15.51 72.66 -17.03C71.33 -18.54 69.31 -19.3 66.61 -19.3C64.97 -19.3 63.54 -18.86 62.32 -17.99C61.1 -17.12 60.17 -15.94 59.53 -14.44C58.89 -12.93 58.56 -11.27 58.56 -9.45C58.56 -7.6 58.89 -5.93 59.53 -4.44C60.17 -2.96 61.12 -1.78 62.38 -0.9ZM70.83 -10.45L62.38 -10.45C62.38 -11.82 62.57 -13.05 62.93 -14.15C63.29 -15.25 63.79 -16.12 64.44 -16.75C65.08 -17.38 65.8 -17.69 66.61 -17.69C68.03 -17.69 69.09 -17.08 69.78 -15.84C70.48 -14.61 70.83 -12.81 70.83 -10.45Z M101.27 -0.14C102.15 0.22 103.02 0.4 103.88 0.4C105.27 0.4 106.44 0.19 107.38 -0.24C108.32 -0.67 109.03 -1.19 109.51 -1.81L109.71 -1.81L111.12 0L113.13 0L113.13 -10.86C113.13 -14.15 112.5 -16.39 111.24 -17.55C109.98 -18.72 108.26 -19.3 106.09 -19.3C104.78 -19.3 103.57 -19.19 102.45 -18.96C101.34 -18.73 100.54 -18.38 100.06 -17.89C99.6 -17.44 99.32 -16.95 99.22 -16.43C99.11 -15.9 99.06 -15.19 99.06 -14.27L100.86 -14.27C101.16 -15.53 101.67 -16.42 102.39 -16.93C103.12 -17.44 104.08 -17.69 105.29 -17.69C106.65 -17.69 107.7 -17.21 108.42 -16.24C109.15 -15.28 109.51 -13.48 109.51 -10.86L108.3 -10.86C105.25 -10.86 102.77 -10.43 100.88 -9.57C98.99 -8.71 98.05 -7.26 98.05 -5.23C98.05 -3.86 98.36 -2.76 98.99 -1.93C99.62 -1.1 100.38 -0.5 101.27 -0.14ZM107.9 -2.05C107.31 -1.62 106.57 -1.41 105.69 -1.41C104.62 -1.41 103.71 -1.74 102.98 -2.39C102.24 -3.05 101.87 -3.99 101.87 -5.23C101.87 -6.43 102.45 -7.41 103.6 -8.14C104.75 -8.88 106.32 -9.25 108.3 -9.25L109.51 -9.25L109.51 -3.82C109.03 -3.07 108.49 -2.48 107.9 -2.05Z M140.77 -1.21C142.05 -0.13 143.69 0.4 145.7 0.4C146.82 0.4 147.84 0.21 148.73 -0.18C149.63 -0.57 150.36 -1.05 150.92 -1.61L151.13 -1.61L152.53 0L154.54 0L154.54 -18.9L150.92 -18.9L150.92 -3.54C149.67 -2.12 148.32 -1.41 146.9 -1.41C145.64 -1.41 144.59 -1.84 143.75 -2.71C142.9 -3.59 142.48 -4.96 142.48 -6.84L142.48 -14.07C142.48 -15.44 142.37 -16.46 142.16 -17.13C141.94 -17.8 141.59 -18.26 141.09 -18.52C140.6 -18.77 139.85 -18.9 138.86 -18.9L135.65 -18.9L135.65 -18.09L136.05 -18.09C137.17 -18.09 137.92 -17.77 138.3 -17.11C138.67 -16.45 138.86 -15.44 138.86 -14.07L138.86 -6.84C138.86 -4.15 139.5 -2.28 140.77 -1.21Z M182.49 -0.88C183.35 -0.03 184.53 0.4 186.03 0.4C187.26 0.4 188.25 0.25 189 -0.06C189.75 -0.37 190.44 -0.75 191.05 -1.21L190.65 -2.01C190.17 -1.74 189.71 -1.54 189.26 -1.41C188.82 -1.27 188.28 -1.21 187.64 -1.21C185.76 -1.21 184.82 -2.41 184.82 -4.83L184.82 -17.29L189.65 -17.29L189.65 -18.9L184.82 -18.9L184.82 -24.93L183.21 -24.93L181.2 -22.52L181.2 -18.9L178.39 -18.9L178.39 -17.29L181.2 -17.29L181.2 -4.83C181.2 -3.06 181.63 -1.74 182.49 -0.88Z M215.46 6.84L215.46 8.04L216.67 8.04C218.17 8.04 219.39 7.67 220.33 6.92C221.26 6.17 222.12 4.73 222.9 2.61L230.74 -18.9L228.73 -18.9L223.66 -4.95L219.08 -16.08C218.19 -18.23 216.59 -19.3 214.25 -19.3L210.84 -19.3L210.84 -18.5C213.03 -18.28 214.51 -17.21 215.26 -15.28L221.69 0.4L220.89 2.61C220.27 4.22 219.54 5.33 218.7 5.93C217.85 6.53 216.77 6.84 215.46 6.84Z"></path></g><rect id="SvgjsRect105416" width="461.99999999999983" height="2.9999999999999996" fill="#333333" transform="translate(1.4210854715202004e-14, 151.17730882432238) scale(1) rotate(180, 230.99999999999991, 1.4999999999999998)" light-content="false"></rect><g id="SvgjsG105417" class="651g72cjQG" transform="translate(459.2404920402339, 24.51729324255843) scale(0.45991799329432687)" light-content="false" non-strokable="false" fill="#000000"><path d="M30 6C16.767 6 6 16.767 6 30s10.767 24 24 24 24-10.767 24-24S43.233 6 30 6zm0 46C17.87 52 8 42.13 8 30S17.87 8 30 8s22 9.87 22 22-9.87 22-22 22z"></path><path d="M44.635 19.814a.993.993 0 0 0-1.125.492l-5.043 9.289-4.808-9.272a1 1 0 0 0-1.888.46v18.434h2V24.884l3.788 7.303a1 1 0 0 0 .878.54h.01a1 1 0 0 0 .878-.522l4.064-7.484v14.496h2V20.783a1 1 0 0 0-.754-.969zm-29.023 1.969h5.11v17.434h2V21.783h5.108v-2H15.612z"></path></g></g></g></svg>
